# xmcd CD database file
#
# Track frame offsets:
#	150
#	11777
#	32415
#	55375
#	69455
#	84422
#	113530
#	130320
#	149515
#	162832
#	184920
#	200667
#	225902
#	251422
#
# Disc length: 3625 seconds
#
# Revision: 1
# Processed by: cddbd v1.5.2PL0 Copyright (c) Steve Scherf et al.
# Submitted via: jetAudio 5
#
DISCID=b90e270e
DTITLE=Lyle Lovett - Live In Texas
DYEAR=1900
DGENRE=
TTITLE0=Penguins
TTITLE1=I've Been To Memphis
TTITLE2=That's Right (You're Not From Texas)
TTITLE3=Nobody Knows me
TTITLE4=If I Had A Boat
TTITLE5=North Dakota
TTITLE6=She's No Lady
TTITLE7=Here I Am
TTITLE8=What Do You Do
TTITLE9=Wild Women Get The Blues
TTITLE10=M-O-N-E-Y
TTITLE11=You Can't Resist It
TTITLE12=Church
TTITLE13=Closing Time
EXTD=
EXTT0=
EXTT1=
EXTT2=
EXTT3=
EXTT4=
EXTT5=
EXTT6=
EXTT7=
EXTT8=
EXTT9=
EXTT10=
EXTT11=
EXTT12=
EXTT13=
PLAYORDER=
